<?xml version="1.0" encoding="UTF-8" standalone="no"?>
<!DOCTYPE svg PUBLIC "-//W3C//DTD SVG 1.1//EN" "http://www.w3.org/Graphics/SVG/1.1/DTD/svg11.dtd">
<svg width="100%" height="100%" viewBox="0 0 24 24" version="1.1" xmlns="http://www.w3.org/2000/svg" xmlns:xlink="http://www.w3.org/1999/xlink" xml:space="preserve" xmlns:serif="http://www.serif.com/" style="fill-rule:evenodd;clip-rule:evenodd;stroke-linejoin:round;stroke-miterlimit:2;">
    <path d="M14,4L13.5,4C12.672,4 12,4.672 12,5.5L12,7L14.5,7L14.5,6.75C14.5,6.336 14.836,6 15.25,6C15.664,6 16,6.336 16,6.75L16,7L19,7L19,6.75C19,6.336 19.336,6 19.75,6C20.164,6 20.5,6.336 20.5,6.75L20.5,7L23,7L23,5.5C23,4.672 22.328,4 21.5,4L21,4L21,3C21,2.034 20.217,1.25 19.25,1.25L15.75,1.25C14.784,1.25 14,2.034 14,3L14,4ZM15.5,3C15.5,2.862 15.612,2.75 15.75,2.75L19.25,2.75C19.388,2.75 19.5,2.862 19.5,3L19.5,4L15.5,4L15.5,3ZM12,10.5L12,8.5L14.5,8.5L14.5,9.25C14.5,9.664 14.836,10 15.25,10C15.664,10 16,9.664 16,9.25L16,8.5L19,8.5L19,9.25C19,9.664 19.336,10 19.75,10C20.164,10 20.5,9.664 20.5,9.25L20.5,8.5L23,8.5L23,10.5C23,11.328 22.328,12 21.5,12L13.5,12C12.672,12 12,11.328 12,10.5ZM13,3.05C12.631,3.125 12.291,3.282 12,3.5L6.5,3.5C5.948,3.5 5.5,3.948 5.5,4.5L5.5,18L19,18L19,13L20.5,13L20.5,18.75C20.5,19.164 20.164,19.5 19.75,19.5L5.5,19.5C5.5,20.052 5.948,20.5 6.5,20.5L19.75,20.5C20.164,20.5 20.5,20.836 20.5,21.25C20.5,21.664 20.164,22 19.75,22L6.5,22C5.119,22 4,20.881 4,19.5L4,4.5C4,3.119 5.119,2 6.5,2L13.188,2C13.066,2.31 13,2.647 13,3L13,3.05Z" style="fill:rgb(33,33,33);fill-rule:nonzero;"/>
    <path d="M14,4L13.5,4C12.672,4 12,4.672 12,5.5L12,7L14.5,7L14.5,6.75C14.5,6.336 14.836,6 15.25,6C15.664,6 16,6.336 16,6.75L16,7L19,7L19,6.75C19,6.336 19.336,6 19.75,6C20.164,6 20.5,6.336 20.5,6.75L20.5,7L23,7L23,5.5C23,4.672 22.328,4 21.5,4L21,4L21,3C21,2.034 20.217,1.25 19.25,1.25L15.75,1.25C14.784,1.25 14,2.034 14,3L14,4ZM15.5,3C15.5,2.862 15.612,2.75 15.75,2.75L19.25,2.75C19.388,2.75 19.5,2.862 19.5,3L19.5,4L15.5,4L15.5,3ZM12,10.5L12,8.5L14.5,8.5L14.5,9.25C14.5,9.664 14.836,10 15.25,10C15.664,10 16,9.664 16,9.25L16,8.5L19,8.5L19,9.25C19,9.664 19.336,10 19.75,10C20.164,10 20.5,9.664 20.5,9.25L20.5,8.5L23,8.5L23,10.5C23,11.328 22.328,12 21.5,12L13.5,12C12.672,12 12,11.328 12,10.5Z" style="fill:rgb(0,177,63);fill-rule:nonzero;"/>
</svg>
